<svg width="25" height="25" viewBox="0 0 25 25" fill="none" xmlns="http://www.w3.org/2000/svg">
<g id="Chat">
<path id="Vector" d="M22.5 22.6251L18.5 18.6251H8.5C7.95 18.6251 7.47917 18.4293 7.0875 18.0376C6.69583 17.646 6.5 17.1751 6.5 16.6251V15.6251H17.5C18.05 15.6251 18.5208 15.4293 18.9125 15.0376C19.3042 14.646 19.5 14.1751 19.5 13.6251V6.62512H20.5C21.05 6.62512 21.5208 6.82096 21.9125 7.21262C22.3042 7.60429 22.5 8.07512 22.5 8.62512V22.6251ZM4.5 12.8001L5.675 11.6251H15.5V4.62512H4.5V12.8001ZM2.5 17.6251V4.62512C2.5 4.07512 2.69583 3.60429 3.0875 3.21262C3.47917 2.82096 3.95 2.62512 4.5 2.62512H15.5C16.05 2.62512 16.5208 2.82096 16.9125 3.21262C17.3042 3.60429 17.5 4.07512 17.5 4.62512V11.6251C17.5 12.1751 17.3042 12.646 16.9125 13.0376C16.5208 13.4293 16.05 13.6251 15.5 13.6251H6.5L2.5 17.6251Z" fill="#FBFFFE"/>
</g>
</svg>
