<svg width="10" height="15" viewBox="0 0 10 15" fill="none" xmlns="http://www.w3.org/2000/svg">
<g id="locationButton">
<path id="Vector" d="M1.21992 9.04018L1.21971 9.03985C0.592342 8.02641 0.25 6.90729 0.25 5.71429C0.25 3.08808 2.37379 0.964294 5 0.964294C7.62621 0.964294 9.75 3.08808 9.75 5.71429C9.75 6.90722 9.40771 8.02592 8.77379 9.0388L8.77256 9.0408C8.4413 9.58128 8.0565 10.0837 7.66183 10.5956L7.62677 10.6411C7.24581 11.1351 6.85682 11.6395 6.51681 12.1814L6.51673 12.1815C6.1716 12.7323 5.93014 13.2453 5.66546 13.8247L5.66527 13.8251C5.63187 13.8986 5.598 13.9847 5.56562 14.0671C5.55195 14.1019 5.53854 14.1359 5.52555 14.1681C5.47871 14.2841 5.43134 14.3913 5.37631 14.4836C5.26726 14.6666 5.15585 14.75 5 14.75C4.84413 14.75 4.73259 14.6666 4.62241 14.483C4.56681 14.3903 4.51877 14.2829 4.47075 14.1665C4.45881 14.1375 4.44654 14.1071 4.43404 14.0761C4.39974 13.9911 4.36364 13.9016 4.3273 13.8245C4.06845 13.2422 3.82037 12.7309 3.47628 12.1818C3.13052 11.6272 2.73424 11.1132 2.34705 10.611L2.33102 10.5902C1.93612 10.078 1.55128 9.57734 1.21992 9.04018ZM2.96429 5.89287C2.96429 7.01665 3.87621 7.92858 5 7.92858C6.12379 7.92858 7.03571 7.01665 7.03571 5.89287C7.03571 4.76908 6.12379 3.85715 5 3.85715C3.87621 3.85715 2.96429 4.76908 2.96429 5.89287Z" stroke="black" stroke-width="0.5"/>
</g>
</svg>
