<svg width="39" height="42" viewBox="0 0 39 42" fill="none" xmlns="http://www.w3.org/2000/svg">
<path fill-rule="evenodd" clip-rule="evenodd" d="M39 21C39 32.4644 29.8865 41.7581 18.6445 41.7581C11.6077 41.7581 5.40495 38.1169 1.74904 32.5814C2.05206 31.9471 2.2955 31.2775 2.47188 30.5802H9.30968C10.4222 30.5802 11.3074 29.6322 11.2587 28.4928C11.0882 24.5758 12.6799 20.7003 15.8226 18.0973L16.8378 19.8271C14.5964 21.7981 13.1752 24.7255 13.1996 27.9938C13.2402 33.782 17.8447 38.5141 23.4969 38.564C29.3115 38.6222 34.0378 33.782 33.9891 27.8275C33.9322 22.0393 29.3115 17.3156 23.6593 17.274C22.4493 17.2657 21.2961 17.4653 20.216 17.8478L17.5443 13.2821H24.2359C25.316 13.2821 26.1849 12.3923 26.1849 11.2862V8.62493C26.1849 7.51884 25.316 6.62899 24.2359 6.62899H20.5571C20.0049 6.62899 19.477 6.87016 19.1116 7.28598L16.0663 10.7539L14.2147 7.59369C13.8574 6.99491 13.224 6.62899 12.5418 6.62899H6.04508C5.33044 6.62899 4.74573 7.22777 4.74573 7.95961V9.29024C4.74573 10.0221 5.33044 10.6209 6.04508 10.6209H11.4374L12.9966 13.2821H0.514743C0.353561 13.0667 0.182677 12.8578 -1.47807e-06 12.6566C3.15006 5.34668 10.3127 0.241913 18.6445 0.241913C29.8865 0.241913 39 9.53562 39 21ZM23.9435 34.5638C27.2325 34.3891 29.8962 31.6614 30.0748 28.2849C30.2697 24.451 27.2894 21.2659 23.5862 21.2742C23.1477 21.2742 22.7173 21.3158 22.295 21.4072L26.2418 28.1352C26.6072 28.7673 26.4123 29.5906 25.7951 29.9648L24.6825 30.6468C24.0654 31.021 23.2614 30.8214 22.8959 30.1894L18.8842 23.3366C17.7717 24.5259 17.0895 26.1393 17.0895 27.919C17.0895 31.7113 20.1998 34.7717 23.9435 34.5638Z" fill="#FBFFFE"/>
</svg>
