<svg width="25" height="25" viewBox="0 0 25 25" fill="none" xmlns="http://www.w3.org/2000/svg">
<g id="Phone">
<path id="Vector" d="M20.45 21.6251C18.3667 21.6251 16.3083 21.171 14.275 20.2626C12.2417 19.3543 10.3917 18.0668 8.725 16.4001C7.05833 14.7335 5.77083 12.8835 4.8625 10.8501C3.95417 8.81679 3.5 6.75846 3.5 4.67512C3.5 4.37512 3.6 4.12512 3.8 3.92512C4 3.72512 4.25 3.62512 4.55 3.62512H8.6C8.83333 3.62512 9.04167 3.70429 9.225 3.86262C9.40833 4.02096 9.51667 4.20846 9.55 4.42512L10.2 7.92512C10.2333 8.19179 10.225 8.41679 10.175 8.60012C10.125 8.78346 10.0333 8.94179 9.9 9.07512L7.475 11.5251C7.80833 12.1418 8.20417 12.7376 8.6625 13.3126C9.12083 13.8876 9.625 14.4418 10.175 14.9751C10.6917 15.4918 11.2333 15.971 11.8 16.4126C12.3667 16.8543 12.9667 17.2585 13.6 17.6251L15.95 15.2751C16.1 15.1251 16.2958 15.0126 16.5375 14.9376C16.7792 14.8626 17.0167 14.8418 17.25 14.8751L20.7 15.5751C20.9333 15.6418 21.125 15.7626 21.275 15.9376C21.425 16.1126 21.5 16.3085 21.5 16.5251V20.5751C21.5 20.8751 21.4 21.1251 21.2 21.3251C21 21.5251 20.75 21.6251 20.45 21.6251ZM6.525 9.62512L8.175 7.97512L7.75 5.62512H5.525C5.60833 6.30846 5.725 6.98346 5.875 7.65012C6.025 8.31679 6.24167 8.97512 6.525 9.62512ZM15.475 18.5751C16.125 18.8585 16.7875 19.0835 17.4625 19.2501C18.1375 19.4168 18.8167 19.5251 19.5 19.5751V17.3751L17.15 16.9001L15.475 18.5751Z" fill="#FBFFFE"/>
</g>
</svg>
