<svg width="25" height="25" viewBox="0 0 25 25" fill="none" xmlns="http://www.w3.org/2000/svg">
<path id="Vector" d="M24.0278 24.4686C23.4908 25.0055 22.6203 25.0055 22.0833 24.4686L16.2485 18.6337C15.1424 17.5276 13.382 17.4817 11.9097 18.0102C11.0069 18.3343 10.0463 18.4964 9.02778 18.4964C6.50463 18.4964 4.36921 17.6225 2.62153 15.8748C0.873843 14.1271 0 11.9917 0 9.46857C0 6.94543 0.873843 4.81001 2.62153 3.06232C4.36921 1.31464 6.50463 0.440796 9.02778 0.440796C11.5509 0.440796 13.6863 1.31464 15.434 3.06232C17.1817 4.81001 18.0556 6.94543 18.0556 9.46857C18.0556 10.4871 17.8935 11.4477 17.5694 12.3505C17.0409 13.8228 17.0868 15.5832 18.1929 16.6893L24.0278 22.5241C24.5647 23.0611 24.5647 23.9316 24.0278 24.4686ZM9.02778 15.7186C10.7639 15.7186 12.2396 15.1109 13.4549 13.8957C14.6701 12.6804 15.2778 11.2047 15.2778 9.46857C15.2778 7.73246 14.6701 6.25677 13.4549 5.04149C12.2396 3.82621 10.7639 3.21857 9.02778 3.21857C7.29167 3.21857 5.81597 3.82621 4.60069 5.04149C3.38542 6.25677 2.77778 7.73246 2.77778 9.46857C2.77778 11.2047 3.38542 12.6804 4.60069 13.8957C5.81597 15.1109 7.29167 15.7186 9.02778 15.7186Z" fill="#FBFFFE"/>
</svg>
