<svg width="16" height="16" viewBox="0 0 16 16" fill="none" xmlns="http://www.w3.org/2000/svg">
<g id="Time">
<path id="Vector" d="M10.1999 11.1333L11.1333 10.2L8.66658 7.73333V4.66666H7.33325V8.26666L10.1999 11.1333ZM7.99992 14.6667C7.0777 14.6667 6.21103 14.4917 5.39992 14.1417C4.58881 13.7917 3.88325 13.3167 3.28325 12.7167C2.68325 12.1167 2.20825 11.4111 1.85825 10.6C1.50825 9.78888 1.33325 8.92222 1.33325 7.99999C1.33325 7.07777 1.50825 6.21111 1.85825 5.39999C2.20825 4.58888 2.68325 3.88333 3.28325 3.28333C3.88325 2.68333 4.58881 2.20833 5.39992 1.85833C6.21103 1.50833 7.0777 1.33333 7.99992 1.33333C8.92214 1.33333 9.78881 1.50833 10.5999 1.85833C11.411 2.20833 12.1166 2.68333 12.7166 3.28333C13.3166 3.88333 13.7916 4.58888 14.1416 5.39999C14.4916 6.21111 14.6666 7.07777 14.6666 7.99999C14.6666 8.92222 14.4916 9.78888 14.1416 10.6C13.7916 11.4111 13.3166 12.1167 12.7166 12.7167C12.1166 13.3167 11.411 13.7917 10.5999 14.1417C9.78881 14.4917 8.92214 14.6667 7.99992 14.6667ZM7.99992 13.3333C9.4777 13.3333 10.736 12.8139 11.7749 11.775C12.8138 10.7361 13.3333 9.47777 13.3333 7.99999C13.3333 6.52222 12.8138 5.26388 11.7749 4.22499C10.736 3.18611 9.4777 2.66666 7.99992 2.66666C6.52214 2.66666 5.26381 3.18611 4.22492 4.22499C3.18603 5.26388 2.66659 6.52222 2.66659 7.99999C2.66659 9.47777 3.18603 10.7361 4.22492 11.775C5.26381 12.8139 6.52214 13.3333 7.99992 13.3333Z" fill="#6D676E"/>
</g>
</svg>
